<?xml version="1.0" encoding="utf-8"?>
<!-- Generator: Adobe Illustrator 15.1.0, SVG Export Plug-In . SVG Version: 6.00 Build 0)  -->
<!DOCTYPE svg PUBLIC "-//W3C//DTD SVG 1.1//EN" "http://www.w3.org/Graphics/SVG/1.1/DTD/svg11.dtd">
<svg version="1.1"
	 id="Layer_1" xmlns:dc="http://purl.org/dc/elements/1.1/" xmlns:rdf="http://www.w3.org/1999/02/22-rdf-syntax-ns#" xmlns:cc="http://creativecommons.org/ns#"
	 xmlns="http://www.w3.org/2000/svg" xmlns:xlink="http://www.w3.org/1999/xlink" x="0px" y="0px" width="792px" height="612px"
	 viewBox="0 0 792 612" enable-background="new 0 0 792 612" xml:space="preserve">
<g>
	<g transform="matrix(1.25,0,0,-1.25,0,320)">
		<g transform="translate(10.046 31.272)">
			<path fill="#231F20" d="M110.956-162.533h4.457v31.207h0.107l21.758-31.207h5.627v37.581h-4.457v-31.212h-0.108l-21.761,31.212
				h-5.624V-162.533z M151.071-162.533h5.044l3.872,9.23h18.791l3.822-9.23h5.199l-15.974,37.581h-4.193L151.071-162.533z
				 M177.075-149.163h-15.332l7.796,18.48h0.111L177.075-149.163z M195.965-162.533h4.461v31.524h0.103l13.481-31.524h2.709
				l13.482,31.524h0.103v-31.524h4.461v37.581h-6.475l-12.846-29.458h-0.108l-12.737,29.458h-6.634V-162.533z M247.283-162.533
				h24.572v4.138h-20.121v13.372h17.887v4.141h-17.887v11.79h19.16v4.14h-23.61V-162.533z"/>
		</g>
		<g transform="translate(113.05 31.272)">
			<path fill="#C1272D" d="M178.929-162.533h11.199c6.953,0,14.644,2.227,14.644,10.508c0,4.937-3.654,8.813-8.486,9.231v0.116
				c4.037,1.207,6.583,4.133,6.583,8.489c0,6.904-6.264,9.238-12.472,9.238h-11.468V-162.533z M183.39-129.092h6.631
				c4.037,0,8.068-1.067,8.068-5.687c0-5.198-4.35-6.103-8.542-6.103h-6.156V-129.092z M183.39-145.023h7.639
				c4.511,0,8.973-1.596,8.973-6.839c0-4.782-4.729-6.533-9.078-6.533h-7.534V-145.023z M211.189-162.533h5.044l3.87,9.23h18.787
				l3.833-9.23h5.195l-15.977,37.581h-4.188L211.189-162.533z M237.198-149.163h-15.337l7.8,18.48h0.108L237.198-149.163z
				 M255.394-162.533h14.441c7.378,0,18.411,4.936,18.411,18.785c0,13.852-11.033,18.796-18.411,18.796h-14.441V-162.533z
				 M259.853-129.092h8.489c8.603,0,15.131-4.357,15.131-14.656c0-10.298-6.528-14.647-15.131-14.647h-8.489V-129.092z
				 M330.544-141.51h-13.117v-4.141h8.659v-11.52c-2.764-1.38-6.314-2.175-9.339-2.175c-9.241,0-15.555,6.633-15.555,15.598
				c0,9.13,6.531,15.609,15.12,15.609c3.831,0,7.7-1.541,10.247-4.303l3.342,3.506c-3.553,3.616-8.327,4.938-13.264,4.938
				c-11.256,0-20.219-7.909-20.219-19.751c0-11.774,8.38-19.738,20.056-19.738c4.891,0,9.766,1.105,14.069,3.498V-141.51z
				 M343.066-162.533h24.566v4.138h-20.117v13.372h17.889v4.141h-17.889v11.79h19.161v4.14h-23.609V-162.533z M399.203-128.411
				c-2.759,3.245-6.314,4.414-10.503,4.414c-6.583,0-12.797-3.614-12.797-10.826c0-6.276,4.031-8.606,9.337-10.352
				c6.689-2.24,9.82-3.038,9.82-7.648c0-4.295-4.355-6.523-8.17-6.523c-3.241,0-6.422,1.43-8.016,4.193l-3.802-3.134
				c2.547-3.767,7.211-5.198,11.569-5.198c6.792,0,13.209,3.498,13.209,10.979c0,7.383-5.409,9.295-11.25,11.152
				c-5.992,1.911-7.909,3.444-7.909,6.902c0,4.451,4.092,6.315,8.02,6.315c2.705,0,5.358-1.067,6.845-3.459l3.659,3.187H399.203z"/>
		</g>
		<path fill="#231F20" d="M120.699-177.852h2.607v21.982h-2.607V-177.852z M141.2-177.852h2.609v18.253h0.061l12.732-18.253h3.292
			v21.982h-2.611v-18.263h-0.064l-12.725,18.263H141.2V-177.852z M192.542-155.87h-17.138v-2.431h7.264v-19.551h2.606v19.551h7.268
			V-155.87z M208.049-177.852h14.375v2.421h-11.769v7.823h10.467v2.421h-10.467v6.885h11.211v2.431h-13.817V-177.852
			L208.049-177.852z M238.895-177.852h2.606v9.873h3.354l5.958-9.873h3.204l-6.241,10.12c3.411,0.525,5.496,2.6,5.496,5.805
			c0,5.428-4.505,6.057-8.759,6.057h-5.618V-177.852L238.895-177.852z M241.5-158.302h3.669c2.537,0,5.3-0.463,5.3-3.626
			c0-3.631-3.751-3.631-6.641-3.631H241.5V-158.302z M270.3-177.852h2.606v18.253h0.06l12.733-18.253h3.291v21.982h-2.612v-18.263
			h-0.061l-12.726,18.263H270.3V-177.852z M304.345-177.852h2.949l2.264,5.399h10.989l2.244-5.399h3.033l-9.34,21.982h-2.452
			l-9.677-21.982H304.345z M319.555-170.039h-8.969l4.565,10.812h0.059L319.555-170.039z M353.075-155.87h-17.136v-2.431h7.256
			v-19.551h2.617v19.551h7.263V-155.87L353.075-155.87z M368.584-177.852h2.608v21.982h-2.608V-177.852z M399.298-178.411
			c6.675,0,11.483,4.898,11.483,11.545c0,6.648-4.808,11.552-11.483,11.552c-6.675,0-11.486-4.905-11.486-11.552
			C387.813-173.513,392.623-178.411,399.298-178.411 M399.298-175.998c-5.148,0-8.698,4.07-8.698,9.131
			c0,5.063,3.55,9.123,8.698,9.123c5.155,0,8.691-4.059,8.691-9.123C407.989-171.927,404.453-175.998,399.298-175.998
			 M427.419-177.852h2.608v18.253h0.056l12.736-18.253h3.288v21.982H443.5v-18.263h-0.063l-12.73,18.263h-3.289V-177.852z
			 M461.469-177.852h2.947l2.259,5.399h10.994l2.239-5.399h3.042l-9.348,21.982h-2.447L461.469-177.852z M476.681-170.039h-8.978
			l4.566,10.812h0.061L476.681-170.039z M498.3-177.852h12.667v2.421h-10.059v19.561H498.3V-177.852z"/>
		
			<linearGradient id="SVGID_1_" gradientUnits="userSpaceOnUse" x1="0.4633" y1="-233.9266" x2="1.331" y2="-233.9266" gradientTransform="matrix(-171.8668 -189.2706 189.2706 -171.8668 44650.6211 -39802.8281)">
			<stop  offset="0" style="stop-color:#FFFFFF"/>
			<stop  offset="1" style="stop-color:#231F20"/>
		</linearGradient>
		<path fill="url(#SVGID_1_)" d="M140.787,213.205c-17.721-22.408-4.256-54.223,30.179-81.325
			c-20.784,22.862-26.728,46.973-12.479,64.99c16.557,20.939,57.648,28.045,102.503,21.571l10.619,5.091l7.848,3.062
			c-23.379,6.93-46.846,10.406-67.928,10.408C179.733,237.004,153.351,229.097,140.787,213.205"/>
		
			<linearGradient id="SVGID_2_" gradientUnits="userSpaceOnUse" x1="0.4598" y1="-233.9867" x2="1.3276" y2="-233.9867" gradientTransform="matrix(304.9958 289.8394 -289.8394 304.9958 -67739.2188 71236.9844)">
			<stop  offset="0" style="stop-color:#881518"/>
			<stop  offset="0.5" style="stop-color:#C1272D"/>
			<stop  offset="1" style="stop-color:#CE181F"/>
		</linearGradient>
		<path fill="url(#SVGID_2_)" d="M185.189,99.934c0-73.916,59.915-133.822,133.823-133.822c73.919,0,133.841,59.906,133.841,133.822
			c0,73.917-59.922,133.837-133.841,133.837C245.105,233.771,185.189,173.852,185.189,99.934"/>
		
			<linearGradient id="SVGID_3_" gradientUnits="userSpaceOnUse" x1="0.4262" y1="-233.9648" x2="1.294" y2="-233.9648" gradientTransform="matrix(121.6159 121.3768 -121.3768 121.6159 -28129.3418 28505.3262)">
			<stop  offset="0" style="stop-color:#C6262C"/>
			<stop  offset="0.5" style="stop-color:#DF917A"/>
			<stop  offset="1" style="stop-color:#FFFFFF"/>
		</linearGradient>
		<path fill="url(#SVGID_3_)" d="M291.879,211.795c-22.075-22.029-9.271-70.642,28.607-108.591
			c37.867-37.932,86.455-50.833,108.523-28.81c22.094,22.045,13.534,74.919-24.336,112.857
			c-24.158,24.2-54.416,36.477-78.884,36.479C311.896,223.731,299.873,219.774,291.879,211.795"/>
		<g transform="translate(120.96 151.25)">
			<path fill="#FFFFFF" d="M184.148-83.368L166.31-83.35c-9.501,13.346-18.848,24.233-28.072,32.659
				c-9.216,8.423-18.308,14.412-27.262,17.97c-0.664,0.255-1.385,0.52-2.143,0.799c-0.773,0.284-1.587,0.58-2.455,0.888
				c0.219-2.55,0.335-4.203,0.335-4.955l-0.048-47.3l-16.411,0.017l0.07,70.487l14.524-0.014c5.509-1.811,10.957-4.171,16.32-7.079
				c5.361-2.893,10.562-6.193,15.616-9.873c5.051-3.682,9.934-7.703,14.655-12.07c4.72-4.373,9.225-8.926,13.512-13.668l3.025-3.359
				c-0.209,2.046-0.317,3.582-0.317,4.578l0.04,41.414l16.519-0.014L184.148-83.368"/>
		</g>
		<g transform="translate(169.64 193.67)">
			<path fill="#FFFFFF" d="M216.271-55.375c12.622-0.012,18.913-5.98,18.913-17.895c-0.006-4.811-1.108-8.629-3.272-11.428
				c-2.191-2.806-5.395-4.59-9.603-5.334c4.037-0.752,7.18-2.624,9.456-5.611c2.261-2.987,3.381-7.127,3.381-12.409
				c-0.017-11.902-6.331-17.821-18.952-17.814l-73.237,0.071l0.07,70.491L216.271-55.375 M159.819-109.436l51.887-0.051
				c3.738-0.006,5.611,1.753,5.619,5.301c0,4.037-1.864,6.051-5.587,6.062l-39.948,0.034l0.008,14.904l39.941-0.039
				c3.738,0,5.608,2.03,5.617,6.097c0,3.514-1.863,5.264-5.617,5.264l-51.872,0.055L159.819-109.436z"/>
		</g>
		<g transform="translate(195.29 185.26)">
			<path fill="#FFFFFF" d="M233.198-60.925l-16.848,0.01l0.027,13.93L233.219-47L233.198-60.925 M216.318-117.473l0.031,49.239
				l16.848-0.014l-0.048-49.246L216.318-117.473z"/>
		</g>
		
			<linearGradient id="SVGID_4_" gradientUnits="userSpaceOnUse" x1="0.4629" y1="-234.0766" x2="1.3305" y2="-234.0766" gradientTransform="matrix(-171.7999 -189.1965 189.1965 -171.7999 44850.5977 -39984.582)">
			<stop  offset="0" style="stop-color:#FFFFFF"/>
			<stop  offset="1" style="stop-color:#231F20"/>
		</linearGradient>
		<path fill="url(#SVGID_4_)" d="M484.294,21.29c-16.666-37.656-92.291-40.698-168.928-6.805
			C291.362,25.1,270.113,38.087,252.75,52.074c19.738-20.945,48.493-41.056,82.942-56.293
			c76.636-33.886,152.252-30.837,168.928,6.822c11.428,25.856-7.914,61.311-45.972,91.973c24.173-25.65,34.805-52.548,25.644-73.273
			"/>
	</g>
	<g>
		<path fill="#6D6E71" d="M168.664,575.118h3.456l12.035,28.119h-4.449l-2.82-6.949h-13.384l-2.78,6.949h-4.449L168.664,575.118z
			 M175.496,592.951l-5.244-12.909h-0.078l-5.324,12.909H175.496z"/>
		<path fill="#6D6E71" d="M224.466,575.118v17.236c0,3.496,1.747,8.023,7.07,8.023c5.322,0,7.069-4.527,7.069-8.023v-17.236h3.813
			v17.833c0,6.513-4.727,11.002-10.882,11.002c-6.156,0-10.884-4.489-10.884-11.002v-17.833H224.466z"/>
		<path fill="#6D6E71" d="M283.325,597.359c1.35,2.064,3.693,3.019,5.958,3.019c2.502,0,5.601-1.589,5.601-4.687
			c0-6.474-13.861-2.462-13.861-13.425c0-3.297,2.78-7.863,9.532-7.863c3.058,0,5.997,0.636,8.103,3.216l-3.097,2.82
			c-0.954-1.47-2.82-2.462-5.005-2.462c-4.21,0-5.481,2.542-5.481,4.289c0,7.11,13.861,2.859,13.861,12.988
			c0,5.441-4.368,8.698-9.77,8.698c-3.615,0-7.07-1.231-8.977-3.893L283.325,597.359z"/>
		<path fill="#6D6E71" d="M343.813,578.691h-9.055v-3.573h21.924v3.573h-9.055v24.546h-3.814V578.691z"/>
		<path fill="#6D6E71" d="M394.095,575.118h9.889c7.188,0,9.016,4.328,9.016,7.863c0,3.575-2.662,6.951-6.912,7.428l7.984,12.828
			h-4.766l-7.148-12.392h-4.252v12.392h-3.811V575.118z M397.906,587.511h5.006c3.018,0,6.037-0.716,6.037-4.529
			c0-3.813-3.02-4.527-6.037-4.527h-5.006V587.511z"/>
		<path fill="#6D6E71" d="M460.539,575.118h3.457l12.033,28.119h-4.449l-2.818-6.949h-13.385l-2.781,6.949h-4.447L460.539,575.118z
			 M467.371,592.951l-5.244-12.909h-0.076l-5.324,12.909H467.371z"/>
		<path fill="#6D6E71" d="M513.045,575.118h3.811v24.545h12.91v3.574h-16.721V575.118z"/>
		<path fill="#6D6E71" d="M567.02,575.118h3.811v28.119h-3.811V575.118z"/>
		<path fill="#6D6E71" d="M620.238,575.118h3.457l12.033,28.119h-4.447l-2.82-6.949h-13.385l-2.781,6.949h-4.447L620.238,575.118z
			 M627.07,592.951l-5.242-12.909h-0.078l-5.322,12.909H627.07z"/>
	</g>
</g>
</svg>
